<svg id="Layer_1" data-name="Layer 1" xmlns="http://www.w3.org/2000/svg" viewBox="0 0 24 24"><title>eye</title><path d="M12,17.94c-4.32,0-8.2-2.15-9.89-5.48a1,1,0,0,1,0-.9C3.79,8.22,7.68,6.06,12,6.06s8.21,2.16,9.89,5.49a1,1,0,0,1,0,.9C20.2,15.79,16.32,17.94,12,17.94ZM4.14,12A9.12,9.12,0,0,0,12,15.94,9.12,9.12,0,0,0,19.86,12,9.1,9.1,0,0,0,12,8.06,9.1,9.1,0,0,0,4.14,12Z" id="id_101" style="fill: rgb(255, 255, 255);"></path><path d="M12,14.73A2.73,2.73,0,1,1,14.73,12,2.74,2.74,0,0,1,12,14.73Zm0-3.47a.73.73,0,1,0,.73.73A.73.73,0,0,0,12,11.27Z" id="id_102" style="fill: rgb(255, 255, 255);"></path></svg>